<svg xmlns="http://www.w3.org/2000/svg" viewBox="0 0 24 24" id="mixcloud">
  <g>
    <g>
      <path fill="none" stroke="#303c42" stroke-linecap="round" stroke-linejoin="round" d="M14.5 10.5a5 5 0 0 0-9.91-.94A3.5 3.5 0 0 0 4 9.5a3.5 3.5 0 0 0 0 7h10.5a3 3 0 0 0 0-6zm-12.97.03a3.5 3.5 0 0 1 4.95 0m4.88-4.67a5 5 0 0 1 2.79 6.5"></path>
    </g>
    <path fill="none" stroke="#303c42" stroke-linecap="round" stroke-linejoin="round" d="M19.61 16.65a5.94 5.94 0 0 0 0-6.3M22 18.5a9.08 9.08 0 0 0 0-10"></path>
  </g>
</svg>
